<svg id="Layer_1" data-name="Layer 1" xmlns="http://www.w3.org/2000/svg" viewBox="0 0 198 32.9"><defs><style>.cls-1{fill:#414042;}</style></defs><title>logo</title><path class="cls-1" d="M3.4,15.7V25H0V2.1H3.9a17.6,17.6,0,0,1,4.3.4,5.8,5.8,0,0,1,2.6,1.5,6.5,6.5,0,0,1,2,4.9,6.3,6.3,0,0,1-2.1,5A8.3,8.3,0,0,1,5,15.7H3.4Zm0-3.2H4.7q4.8,0,4.8-3.7T4.6,5.3H3.4v7.2Z"/><path class="cls-1" d="M15.7,0h3.3V11.8A5.7,5.7,0,0,1,23,10.2a5.1,5.1,0,0,1,3.9,1.6,6.4,6.4,0,0,1,1.2,4.4V25H24.8V16.5a4.1,4.1,0,0,0-.6-2.5,2.4,2.4,0,0,0-2-.8,2.7,2.7,0,0,0-2.5,1.1,7.4,7.4,0,0,0-.7,3.8v7H15.7V0Z"/><path class="cls-1" d="M30.8,4.6a2.1,2.1,0,0,1,.6-1.5,2.2,2.2,0,0,1,3.1,0,2,2,0,0,1,.6,1.5,2.1,2.1,0,0,1-.6,1.5,2.1,2.1,0,0,1-1.5.6,2.1,2.1,0,0,1-1.5-.6A2.1,2.1,0,0,1,30.8,4.6Zm3.8,6V25H31.3V10.6h3.3Z"/><path class="cls-1" d="M42.2,0V25H38.9V0h3.3Z"/><path class="cls-1" d="M44.9,4.6a2.1,2.1,0,0,1,.6-1.5,2.2,2.2,0,0,1,3.1,0,2,2,0,0,1,.6,1.5,2.1,2.1,0,0,1-.6,1.5,2.1,2.1,0,0,1-1.5.6,2.1,2.1,0,0,1-1.5-.6A2.1,2.1,0,0,1,44.9,4.6Zm3.8,6V25H45.4V10.6h3.3Z"/><path class="cls-1" d="M55.2,32.9H51.9V10.6h3.3v1.6a6.2,6.2,0,0,1,4.5-2,6.2,6.2,0,0,1,4.9,2.2,7.9,7.9,0,0,1,2,5.5,7.8,7.8,0,0,1-1.9,5.4,6.3,6.3,0,0,1-9.4.1v9.5Zm7.9-15A5,5,0,0,0,62,14.5a3.6,3.6,0,0,0-2.9-1.3,3.8,3.8,0,0,0-3,1.3A4.8,4.8,0,0,0,55,17.8a4.9,4.9,0,0,0,1.1,3.3,3.7,3.7,0,0,0,3,1.3A3.6,3.6,0,0,0,62,21.1,4.7,4.7,0,0,0,63.1,17.9Z"/><path class="cls-1" d="M68.1,6.5h2l-0.4,5H68.4Z"/><path class="cls-1" d="M79.8,13l-2.8,1.5a1.9,1.9,0,0,0-1.6-1.3,1.1,1.1,0,0,0-.8.3,1,1,0,0,0-.3.8q0,0.8,1.9,1.6A11.5,11.5,0,0,1,79.9,18a3.6,3.6,0,0,1,.9,2.6,4.5,4.5,0,0,1-1.5,3.5,5.5,5.5,0,0,1-8.7-2.2l2.8-1.3a6.2,6.2,0,0,0,.9,1.3,2.1,2.1,0,0,0,1.5.6,1.4,1.4,0,0,0,1.7-1.5,2.1,2.1,0,0,0-1.3-1.7l-1-.5-1-.5a6.3,6.3,0,0,1-2-1.4,3.5,3.5,0,0,1-.8-2.3,4.1,4.1,0,0,1,1.3-3.1,4.5,4.5,0,0,1,3.2-1.2A4.4,4.4,0,0,1,79.8,13Z"/><path class="cls-1" d="M92,25L96.8,0.4l7.8,17.8,8.1-17.8L117.1,25h-3.5l-2.2-13.8-6.8,14.8L98.1,11.2,95.6,25H92Z"/><path class="cls-1" d="M122.6,10.6v8.3q0,3.6,2.8,3.6t2.8-3.6V10.6h3.3v8.3a9.3,9.3,0,0,1-.4,3,5,5,0,0,1-1.4,2,7,7,0,0,1-8.6,0,5.1,5.1,0,0,1-1.5-2,8.2,8.2,0,0,1-.4-3V10.6h3.3Z"/><path class="cls-1" d="M143.1,13l-2.8,1.5a1.9,1.9,0,0,0-1.6-1.3,1.1,1.1,0,0,0-.8.3,1,1,0,0,0-.3.8q0,0.8,1.9,1.6a11.5,11.5,0,0,1,3.6,2.1,3.6,3.6,0,0,1,.9,2.6,4.5,4.5,0,0,1-1.5,3.5,5.5,5.5,0,0,1-8.7-2.2l2.8-1.3a6.2,6.2,0,0,0,.9,1.3,2.1,2.1,0,0,0,1.5.6,1.4,1.4,0,0,0,1.7-1.5,2.1,2.1,0,0,0-1.3-1.7l-1-.5-1-.5a6.3,6.3,0,0,1-2-1.4,3.5,3.5,0,0,1-.8-2.3,4.1,4.1,0,0,1,1.3-3.1,4.5,4.5,0,0,1,3.2-1.2A4.4,4.4,0,0,1,143.1,13Z"/><path class="cls-1" d="M160.2,18.6H149.8a4.4,4.4,0,0,0,1.2,2.8,3.5,3.5,0,0,0,2.6,1,3.4,3.4,0,0,0,2.1-.6,8.4,8.4,0,0,0,1.8-2.2l2.8,1.6a11.2,11.2,0,0,1-1.4,1.9,7.3,7.3,0,0,1-1.6,1.3,6.3,6.3,0,0,1-1.8.7l-2.1.2a6.8,6.8,0,0,1-5.2-2.1,7.8,7.8,0,0,1-2-5.5,8,8,0,0,1,1.9-5.5,7.2,7.2,0,0,1,10.1-.1,8,8,0,0,1,1.8,5.6v0.8Zm-3.4-2.7a3.2,3.2,0,0,0-3.4-2.7l-1.1.2-1,.5-0.7.8a3.9,3.9,0,0,0-.5,1.1h6.7Z"/><path class="cls-1" d="M166.1,10.6v8.3q0,3.6,2.8,3.6t2.8-3.6V10.6h3.3v8.3a9.3,9.3,0,0,1-.4,3,5,5,0,0,1-1.4,2,7,7,0,0,1-8.6,0,5.1,5.1,0,0,1-1.5-2,8.2,8.2,0,0,1-.4-3V10.6h3.3Z"/><path class="cls-1" d="M178.2,10.6h3.3v1.3a7,7,0,0,1,1.6-1.4,4,4,0,0,1,1.8-.4,4.4,4.4,0,0,1,3.9,2.1,5,5,0,0,1,4.2-2.1q4.9,0,4.9,5.9V25h-3.3V17a6.2,6.2,0,0,0-.5-2.9,1.8,1.8,0,0,0-1.7-.9,2.2,2.2,0,0,0-2,1,6.7,6.7,0,0,0-.6,3.3V25h-3.3V17q0-3.8-2.2-3.8a2.2,2.2,0,0,0-2.1,1.1,6.6,6.6,0,0,0-.6,3.3V25h-3.3V10.6Z"/></svg>