<svg id="Layer_1" data-name="Layer 1" xmlns="http://www.w3.org/2000/svg" viewBox="0 0 467.6 77.6"><defs><style>.cls-1{fill:#4e425e;}</style></defs><title>logo</title><path class="cls-1" d="M8.1,40V61.9H0V7.9H9.2a41.6,41.6,0,0,1,10.2.9,13.7,13.7,0,0,1,6.2,3.6,15.4,15.4,0,0,1,4.7,11.5q0,7.4-5,11.7T11.9,40H8.1Zm0-7.6h3q11.2,0,11.2-8.6T10.8,15.4H8.1v17Z" transform="translate(0 -2.8)"/><path class="cls-1" d="M37.2,2.8H45V30.7a13.5,13.5,0,0,1,9.3-3.8,12,12,0,0,1,9.2,3.7q2.9,3.3,2.9,10.4V61.9H58.6V41.8q0-4.1-1.5-5.9T52.5,34q-4.1,0-5.8,2.6T45,45.4V61.9H37.2V2.8Z" transform="translate(0 -2.8)"/><path class="cls-1" d="M72.8,13.7a5.1,5.1,0,0,1,5.1-5.1,5,5,0,0,1,3.6,1.5A4.8,4.8,0,0,1,83,13.7a5,5,0,0,1-1.5,3.6,4.8,4.8,0,0,1-3.6,1.5A5.1,5.1,0,0,1,72.8,13.7Zm9.1,14.2V61.9H74V27.8h7.9Z" transform="translate(0 -2.8)"/><path class="cls-1" d="M99.7,2.8V61.9H91.8V2.8h7.9Z" transform="translate(0 -2.8)"/><path class="cls-1" d="M106,13.7a5.1,5.1,0,0,1,5.1-5.1,5,5,0,0,1,3.6,1.5,4.8,4.8,0,0,1,1.5,3.6,5,5,0,0,1-1.5,3.6,4.8,4.8,0,0,1-3.6,1.5A5.1,5.1,0,0,1,106,13.7ZM115,27.8V61.9h-7.9V27.8H115Z" transform="translate(0 -2.8)"/><path class="cls-1" d="M130.4,80.4h-7.9V27.8h7.9v3.7a14.6,14.6,0,0,1,10.6-4.7,14.7,14.7,0,0,1,11.6,5.2,18.7,18.7,0,0,1,4.6,13,18.4,18.4,0,0,1-4.6,12.8,14.9,14.9,0,0,1-22.2.3V80.4Zm18.7-35.4a11.8,11.8,0,0,0-2.7-8,8.6,8.6,0,0,0-6.8-3.1,9,9,0,0,0-7,3,11.4,11.4,0,0,0-2.7,7.9,11.6,11.6,0,0,0,2.7,7.9,8.8,8.8,0,0,0,7,3,8.5,8.5,0,0,0,6.7-3.1A11.2,11.2,0,0,0,149.1,45.1Z" transform="translate(0 -2.8)"/><path class="cls-1" d="M160.9,18.2h4.8l-1,11.7h-3.1Z" transform="translate(0 -2.8)"/><path class="cls-1" d="M188.6,33.7l-6.5,3.5q-1.5-3.1-3.8-3.1a2.6,2.6,0,0,0-1.9.7,2.4,2.4,0,0,0-.8,1.8q0,2,4.5,3.9,6.3,2.7,8.4,5a8.5,8.5,0,0,1,2.2,6.1,10.7,10.7,0,0,1-3.6,8.2,12.4,12.4,0,0,1-8.5,3.1q-8.6,0-12.1-8.4l6.7-3.1a14.6,14.6,0,0,0,2.1,3.1,4.9,4.9,0,0,0,3.4,1.3q4,0,4-3.6,0-2.1-3.1-3.9l-2.4-1.2L174.9,46a14.8,14.8,0,0,1-4.8-3.4,8.3,8.3,0,0,1-1.8-5.5,9.7,9.7,0,0,1,3-7.3,10.7,10.7,0,0,1,7.6-2.9Q185.4,26.9,188.6,33.7Z" transform="translate(0 -2.8)"/><path class="cls-1" d="M217.3,61.9l11.4-58,18.5,42,19.2-42,10.2,58h-8.4l-5.2-32.6-16,35.1L231.6,29.3l-5.8,32.6h-8.4Z" transform="translate(0 -2.8)"/><path class="cls-1" d="M289.5,27.8V47.4q0,8.5,6.7,8.5t6.7-8.5V27.8h7.9V47.6a22,22,0,0,1-1,7.1,11.9,11.9,0,0,1-3.4,4.8,16.5,16.5,0,0,1-20.2,0,12,12,0,0,1-3.5-4.8,19.5,19.5,0,0,1-1-7.1V27.8h7.9Z" transform="translate(0 -2.8)"/><path class="cls-1" d="M338,33.7l-6.5,3.5q-1.5-3.1-3.8-3.1a2.6,2.6,0,0,0-1.9.7,2.4,2.4,0,0,0-.8,1.8q0,2,4.5,3.9,6.3,2.7,8.4,5a8.5,8.5,0,0,1,2.2,6.1,10.7,10.7,0,0,1-3.6,8.2,12.4,12.4,0,0,1-8.5,3.1q-8.6,0-12.1-8.4l6.7-3.1a14.6,14.6,0,0,0,2.1,3.1,4.9,4.9,0,0,0,3.4,1.3q4,0,4-3.6,0-2.1-3.1-3.9l-2.4-1.2L324.3,46a14.8,14.8,0,0,1-4.8-3.4,8.3,8.3,0,0,1-1.8-5.5,9.7,9.7,0,0,1,3-7.3,10.7,10.7,0,0,1,7.6-2.9Q334.8,26.9,338,33.7Z" transform="translate(0 -2.8)"/><path class="cls-1" d="M378.2,46.7H353.8a10.3,10.3,0,0,0,2.7,6.7,8.3,8.3,0,0,0,6.2,2.4,8,8,0,0,0,4.9-1.4,19.9,19.9,0,0,0,4.3-5.2l6.6,3.7a26.5,26.5,0,0,1-3.3,4.5,17.3,17.3,0,0,1-3.7,3.1,14.8,14.8,0,0,1-4.2,1.8,20.6,20.6,0,0,1-4.9.6q-7.6,0-12.2-4.9t-4.6-13.1q0-8.1,4.5-13.1a15.4,15.4,0,0,1,12-4.9q7.5,0,11.9,4.8t4.3,13.2v1.9Zm-8.1-6.4q-1.6-6.3-7.9-6.3a8.2,8.2,0,0,0-2.7.4,7.7,7.7,0,0,0-2.3,1.3,8,8,0,0,0-1.8,2,9.2,9.2,0,0,0-1.1,2.6h15.8Z" transform="translate(0 -2.8)"/><path class="cls-1" d="M392.2,27.8V47.4q0,8.5,6.7,8.5t6.7-8.5V27.8h7.9V47.6a22,22,0,0,1-1,7.1,11.9,11.9,0,0,1-3.4,4.8,16.5,16.5,0,0,1-20.2,0,12,12,0,0,1-3.5-4.8,19.5,19.5,0,0,1-1-7.1V27.8h7.9Z" transform="translate(0 -2.8)"/><path class="cls-1" d="M420.9,27.8h7.9V31a16.4,16.4,0,0,1,3.9-3.2,9.4,9.4,0,0,1,4.3-.9,10.4,10.4,0,0,1,9.1,5,11.8,11.8,0,0,1,10-5q11.5,0,11.5,14v21h-7.9V43q0-4.9-1.2-6.9a4.3,4.3,0,0,0-4-2.1,5.1,5.1,0,0,0-4.7,2.4q-1.5,2.4-1.5,7.9V61.9h-7.9V43.1q0-9.1-5.2-9.1a5.3,5.3,0,0,0-4.8,2.5q-1.5,2.5-1.5,7.8V61.9h-7.9V27.8Z" transform="translate(0 -2.8)"/></svg>