<svg id="Layer_1" data-name="Layer 1" xmlns="http://www.w3.org/2000/svg" viewBox="0 0 58.7 58.7"><defs><style>.cls-1{fill:#a6a8ab;}</style></defs><title>social-media</title><path class="cls-1" d="M0,0V58.7H58.7V0H0ZM49.8,17.2a18.2,18.2,0,0,1-3.4,3.5,0.8,0.8,0,0,0-.4.7,47,47,0,0,1-.4,4.8,24.7,24.7,0,0,1-6.8,13.3,23.1,23.1,0,0,1-9.4,5.8,26.7,26.7,0,0,1-11.2.9A22.9,22.9,0,0,1,9,43l-0.3-.2h0A17.4,17.4,0,0,0,21,39.1c-3.8-.5-6.5-2.3-7.9-5.9h3.5A8.4,8.4,0,0,1,12,29.9a7.9,7.9,0,0,1-1.8-5.3L12,25.2l1.8,0.4h0.1a8.4,8.4,0,0,1-3.3-5.1,8.7,8.7,0,0,1,.9-6.2,24.6,24.6,0,0,0,17.5,8.9V22.4a8.5,8.5,0,0,1,4.9-9,18.7,18.7,0,0,1,2.5-.8h2.3A7.9,7.9,0,0,1,43,14.8a1.2,1.2,0,0,0,1.4.3l4.1-1.6h0.5a23.7,23.7,0,0,1-1.4,2.3,25.2,25.2,0,0,1-1.9,2A24.1,24.1,0,0,0,50,16.8Z"/></svg>