<svg id="Layer_1" data-name="Layer 1" xmlns="http://www.w3.org/2000/svg" viewBox="0 0 58.7 58.7"><defs><style>.cls-1{fill:#a6a8ab;}</style></defs><title>social-media</title><path class="cls-1" d="M0,0V58.7H58.7V0H0ZM38.6,29.4H32.7V50.7h-8V29.4H19.4c0-.1,0-0.3,0-0.4,0-2.2,0-4.4,0-6.6a0.3,0.3,0,0,1,.4-0.4h4.6c0.3,0,.4-0.1.4-0.4,0-2,0-4,.1-5.9a9.8,9.8,0,0,1,1-4.2,5.6,5.6,0,0,1,3.4-2.9L31.8,8h7.5c0,0.1,0,.3,0,0.4,0,2.2,0,4.4,0,6.6a0.3,0.3,0,0,1-.4.4H34.1a1.6,1.6,0,0,0-1.3,1.6c-0.1,1.5-.1,3.1-0.1,4.6s0.2,0.2.3,0.2h6.3Z"/></svg>