<svg id="Layer_1" data-name="Layer 1" xmlns="http://www.w3.org/2000/svg" viewBox="0 0 58.7 58.7"><defs><style>.cls-1{fill:#a6a8ab;}</style></defs><title>social-media</title><path class="cls-1" d="M27.7,21.9a17.6,17.6,0,0,0,.3-2.1c-0.2-3.5-1.2-6.4-3.9-8.5s-6.1-1.2-7.5,2a8.4,8.4,0,0,0-.3,5.5c0.8,3.1,2.4,5.5,5.6,6.4A4.4,4.4,0,0,0,27.7,21.9Z"/><path class="cls-1" d="M28.3,36.2a11.1,11.1,0,0,0-11.9.1,6.3,6.3,0,0,0-3.1,4.4c-0.3,2.9,1.1,4.8,3.4,6.3a10.4,10.4,0,0,0,6.3,1.3,10.6,10.6,0,0,0,5-1.3,6,6,0,0,0,3.1-3.9A6.4,6.4,0,0,0,28.3,36.2Z"/><path class="cls-1" d="M0,0V58.7H58.7V0H0ZM32.1,47.9a14.9,14.9,0,0,1-6.9,2.6l-0.8.2h-5a23.8,23.8,0,0,1-3.2-.7,21.6,21.6,0,0,1-4.4-2c-4.8-3.2-3.6-9-.9-11.5a12.3,12.3,0,0,1,6.5-3l5.4-.7a4.7,4.7,0,0,1-.9-5.4l-3.3-.5a8.9,8.9,0,0,1-7.2-8.3,9.3,9.3,0,0,1,6.4-9.7A16.5,16.5,0,0,1,22.5,8C26.6,7.9,30.6,8,34.7,8h0.8c-1.5,1.9-2.8,3.7-5.6,2.9v0.2l0.3,0.3A8.4,8.4,0,0,1,32,21.7a17.1,17.1,0,0,1-2.4,2.8l-1.8,1.7a2.4,2.4,0,0,0,0,3.7,28.3,28.3,0,0,0,2.2,2c1,0.9,2.1,1.7,3.1,2.7C37.1,38.7,36.6,44.5,32.1,47.9ZM52.2,17.2H46.4V23h-3V17.3H37.7v-3h5.6V8.7h3v5.6H52l0.2,1v1.9Z"/></svg>