<svg id="Layer_1" data-name="Layer 1" xmlns="http://www.w3.org/2000/svg" viewBox="0 0 2160 367.5"><defs><style>.cls-1{fill:#fff;}</style></defs><title>white_logo</title><path class="cls-1" d="M38.6,172.3V273.4H1V24.4H43.6q31.3,0,47.3,4.4a63.4,63.4,0,0,1,28.4,16.5q21.4,21,21.5,52.9,0,34.2-22.9,54.2T56,172.3H38.6Zm0-34.8h14q51.8,0,51.8-39.8T51,59.1H38.6v78.4Z"/><path class="cls-1" d="M172.4,1h36.3V129.4Q228.1,112,251.5,112q26.6,0,42.6,17.3,13.6,15,13.5,47.9v96.3H271.3V180.5q0-18.9-6.7-27.3t-21.5-8.5q-19,0-26.8,11.8t-7.6,41v76H172.4V1Z"/><path class="cls-1" d="M336.7,51a22.5,22.5,0,0,1,6.9-16.5,23.6,23.6,0,0,1,33.4,0,22.3,22.3,0,0,1,6.9,16.6A22.9,22.9,0,0,1,377,67.9a22.3,22.3,0,0,1-16.6,6.9,22.9,22.9,0,0,1-16.8-6.9A23,23,0,0,1,336.7,51Zm41.8,65.3V273.4H342.2V116.3h36.3Z"/><path class="cls-1" d="M460.7,1V273.4H424.4V1h36.3Z"/><path class="cls-1" d="M489.8,51a22.5,22.5,0,0,1,6.9-16.5,23.6,23.6,0,0,1,33.4,0A22.3,22.3,0,0,1,537,51.2a22.9,22.9,0,0,1-6.9,16.8,22.3,22.3,0,0,1-16.6,6.9,22.9,22.9,0,0,1-16.8-6.9A23,23,0,0,1,489.8,51Zm41.8,65.3V273.4H495.3V116.3h36.3Z"/><path class="cls-1" d="M602.4,358.9H566.1V116.3h36.3v17.1Q623.8,112,651.1,112q32.4,0,53.4,23.9t21.3,59.8q0,35.3-21.1,58.9t-52.9,23.4q-27.6,0-49.4-22.1V358.9Zm86.3-163.1q0-22.6-12.3-36.8t-31.3-14.4q-20,0-32.4,13.9T600.3,195q0,22.1,12.4,36.4t32.3,14q18.9,0,31.1-14.2T688.7,195.8Z"/><path class="cls-1" d="M743.3,71.8l22.3,0.4-4.8,54H746.6Z"/><path class="cls-1" d="M870.8,143.1l-30,16q-7.1-14.4-17.6-14.4a12.1,12.1,0,0,0-8.5,3.3,11,11,0,0,0-3.6,8.5q0,9,21,17.9Q861,186.8,871,197.2t10,28.2a49.4,49.4,0,0,1-16.8,38q-16.3,14.5-39.4,14.5-39.5,0-56-38.5l31-14.4q6.5,11.3,9.8,14.4a22.5,22.5,0,0,0,15.8,6.1q18.4,0,18.4-16.8,0-9.7-14.2-18.1l-11-5.3L807.6,200q-15.8-7.7-22.3-15.5-8.2-9.8-8.2-25.3,0-20.5,14-33.9T826,112Q856.1,112,870.8,143.1Z"/><path class="cls-1" d="M1003.5,273.4L1056,5.7l85.5,193.5L1230,5.7l47.1,267.7h-38.5l-24-150.3-73.7,161.8-71.6-161.9-26.8,150.5h-38.9Z"/><path class="cls-1" d="M1336.4,116.3v90.2q0,39,30.8,39t30.8-39V116.3h36.3v91q0,18.9-4.7,32.6T1413.9,262q-18.4,16-46.8,16t-46.6-16q-11.3-9.8-16-22.1t-4.5-32.6v-91h36.3Z"/><path class="cls-1" d="M1559.9,143.1l-30,16q-7.1-14.4-17.6-14.4a12.1,12.1,0,0,0-8.5,3.3,11,11,0,0,0-3.6,8.5q0,9,21,17.9,28.9,12.4,38.9,22.9t10,28.2a49.4,49.4,0,0,1-16.8,38q-16.3,14.5-39.4,14.5-39.5,0-56-38.5l31-14.4q6.5,11.3,9.8,14.4a22.5,22.5,0,0,0,15.8,6.1q18.4,0,18.4-16.8,0-9.7-14.2-18.1l-11-5.3-11.1-5.3q-15.8-7.7-22.3-15.5-8.2-9.8-8.2-25.3,0-20.5,14-33.9t34.8-13.4Q1545.3,112,1559.9,143.1Z"/><path class="cls-1" d="M1745.7,203.4H1633.2q1.5,19.4,12.6,30.8t28.5,11.3q13.6,0,22.4-6.4t19.8-23.9l30.6,17.1a122,122,0,0,1-15,20.7,79.9,79.9,0,0,1-16.9,14.2,68.1,68.1,0,0,1-19.5,8.1,94.9,94.9,0,0,1-22.7,2.6q-35.2,0-56.5-22.6T1595.3,195q0-37.3,20.6-60.3t55.2-22.7q34.7,0,54.8,22.1t20,60.8Zm-37.3-29.7q-7.6-29-36.6-29a37.6,37.6,0,0,0-12.4,2,35.7,35.7,0,0,0-10.6,5.8,36.7,36.7,0,0,0-8.1,9.1,42.3,42.3,0,0,0-5.2,12.1h72.9Z"/><path class="cls-1" d="M1810.3,116.3v90.2q0,39,30.8,39t30.8-39V116.3h36.3v91q0,18.9-4.7,32.6T1887.9,262q-18.4,16-46.8,16t-46.6-16q-11.3-9.8-16-22.1t-4.5-32.6v-91h36.3Z"/><path class="cls-1" d="M1942.6,116.3h36.3v14.5q10.5-11,17.9-14.8t19.8-4q26.6,0,42.1,23.2Q2075.8,112,2105,112q53.1,0,53.1,64.4v97.1h-36.4V186.2q0-22.6-5.5-31.9t-18.5-9.5q-15,0-21.9,11.3t-6.9,36.3v81.1h-36.4V186.6q0-41.9-24.2-41.9-15.3,0-22.3,11.5t-7,36.1v81.1h-36.3V116.3Z"/></svg>